HIERARCHY
ROOT Hips
{
 OFFSET 0.000000 0.000000 0.000000
 CHANNELS 6 Xposition Yposition Zposition Yrotation Xrotation Zrotation
 JOINT Chest
 {
  OFFSET 0.000000 9.585900 0.002600
  CHANNELS 3 Yrotation Xrotation Zrotation
  JOINT Chest2
  {
   OFFSET 0.000000 9.601200 -0.005300
   CHANNELS 3 Yrotation Xrotation Zrotation
   JOINT Chest3
   {
    OFFSET 0.000000 9.561800 0.000000
    CHANNELS 3 Yrotation Xrotation Zrotation
    JOINT Chest4
    {
     OFFSET 0.000000 9.552100 0.000000
     CHANNELS 3 Yrotation Xrotation Zrotation
     JOINT Neck
     {
      OFFSET 0.000000 14.453000 0.000000
      CHANNELS 3 Yrotation Xrotation Zrotation
      JOINT Head
      {
       OFFSET 0.000000 8.936500 -0.011300
       CHANNELS 3 Yrotation Xrotation Zrotation
       End Site
       {
        OFFSET 0.000000 17.073600 -0.006000
       }
      }
     }
     JOINT RightCollar
     {
      OFFSET -2.921100 9.558500 0.000000
      CHANNELS 3 Yrotation Xrotation Zrotation
      JOINT RightShoulder
      {
       OFFSET -13.519700 0.000000 0.000000
       CHANNELS 3 Yrotation Xrotation Zrotation
       JOINT RightElbow
       {
        OFFSET 0.000000 -29.696600 0.000000
        CHANNELS 3 Yrotation Xrotation Zrotation
        JOINT RightWrist
        {
         OFFSET 0.000000 -24.004700 0.000000
         CHANNELS 3 Yrotation Xrotation Zrotation
         End Site
         {
          OFFSET 0.000000 -17.728500 0.000000
         }
        }
       }
      }
     }
     JOINT LeftCollar
     {
      OFFSET 2.921100 9.558500 0.000000
      CHANNELS 3 Yrotation Xrotation Zrotation
      JOINT LeftShoulder
      {
       OFFSET 13.519700 0.000000 0.000000
       CHANNELS 3 Yrotation Xrotation Zrotation
       JOINT LeftElbow
       {
        OFFSET 0.000000 -29.696600 0.000000
        CHANNELS 3 Yrotation Xrotation Zrotation
        JOINT LeftWrist
        {
         OFFSET 0.000000 -24.004700 0.000000
         CHANNELS 3 Yrotation Xrotation Zrotation
         End Site
         {
          OFFSET 0.000000 -17.728500 0.000000
         }
        }
       }
      }
     }
    }
   }
  }
 }
 JOINT RightHip
 {
  OFFSET -7.771700 -0.012900 -0.001300
  CHANNELS 3 Yrotation Xrotation Zrotation
  JOINT RightKnee
  {
   OFFSET 0.000000 -40.869800 0.001200
   CHANNELS 3 Yrotation Xrotation Zrotation
   JOINT RightAnkle
   {
    OFFSET 0.000000 -39.717900 0.002100
    CHANNELS 3 Yrotation Xrotation Zrotation
    JOINT RightToe
    {
     OFFSET 0.000000 -4.965400 11.033500
     CHANNELS 3 Yrotation Xrotation Zrotation
     End Site
     {
      OFFSET 0.000000 -1.423100 5.872300
     }
    }
   }
  }
 }
 JOINT LeftHip
 {
  OFFSET 7.771700 -0.012900 -0.001300
  CHANNELS 3 Yrotation Xrotation Zrotation
  JOINT LeftKnee
  {
   OFFSET 0.000000 -40.869800 0.001200
   CHANNELS 3 Yrotation Xrotation Zrotation
   JOINT LeftAnkle
   {
    OFFSET 0.000000 -39.717900 0.002100
    CHANNELS 3 Yrotation Xrotation Zrotation
    JOINT LeftToe
    {
     OFFSET 0.000000 -4.965400 11.033500
     CHANNELS 3 Yrotation Xrotation Zrotation
     End Site
     {
      OFFSET 0.000000 -1.423100 5.872300
     }
    }
   }
  }
 }
}
MOTION
Frames: 16
Frame Time: 0.008333
-246.266752 56.741610 149.558860 175.810084 -51.231424 0.278968 -0.765733 23.026161 2.781917 -0.223856 3.337679 0.469078 -0.353797 5.393639 0.753736 -0.965154 19.309050 2.618149 -2.913319 23.221849 -6.840497 -3.484273 7.326519 -11.560098 5.763264 1.828809 -1.384119 32.413793 -36.403069 -24.504901 176.026614 -52.528443 -150.095103 21.537805 -13.635042 -68.042447 -10.382670 -2.072422 -4.829300 -11.803289 -33.779277 1.354076 158.447858 -63.685698 177.920805 -10.040968 -13.585668 37.685898 7.568009 -25.391378 -0.998236 -7.860323 62.470509 -11.508099 1.876037 31.689622 0.604431 -1.349762 -16.831602 9.758987 -10.759687 -23.186734 -0.778209 32.388481 62.405588 30.385067 -11.879514 12.944579 -6.173013 0.108508 0.395955 0.031506
-246.264506 56.741981 149.560183 175.804042 -51.239370 0.285312 -0.770659 23.037478 2.779610 -0.220796 3.337939 0.468268 -0.354227 5.395259 0.754041 -0.979776 19.329455 2.625311 -2.939579 23.185561 -6.925058 -3.507365 7.259838 -11.705694 5.762232 1.835299 -1.380196 32.446115 -36.413785 -24.537069 176.030580 -52.549789 -150.120416 21.536485 -13.627662 -68.033926 -10.391165 -2.064149 -4.823277 -11.796958 -33.763235 1.351439 158.452770 -63.674154 177.922764 -10.057783 -13.609110 37.691703 7.572618 -25.382946 -1.000872 -7.865603 62.468513 -11.507911 1.879256 31.686363 0.603845 -1.350475 -16.823828 9.756027 -10.754634 -23.177113 -0.770813 32.373336 62.404546 30.363929 -11.895861 12.956943 -6.172132 0.114952 0.392998 0.034415
-246.262676 56.742306 149.561837 175.798647 -51.246630 0.292297 -0.775920 23.046715 2.775644 -0.228948 3.343967 0.470936 -0.356722 5.402028 0.754967 -0.975845 19.333054 2.623912 -2.971116 23.156367 -7.004504 -3.539943 7.194086 -11.848416 5.729206 1.870932 -1.353976 32.489104 -36.430832 -24.569802 176.036114 -52.552122 -150.123976 21.531228 -13.626486 -68.020017 -10.392251 -2.065633 -4.821589 -11.790883 -33.763219 1.348587 158.413354 -63.694938 177.956801 -10.014309 -13.599252 37.688011 7.575966 -25.373432 -1.005170 -7.862026 62.464869 -11.500410 1.878781 31.680361 0.607729 -1.348283 -16.814897 9.747482 -10.749345 -23.169572 -0.771677 32.369561 62.400990 30.358265 -11.900820 12.968190 -6.169407 0.112197 0.397279 0.038176
-246.260834 56.741930 149.564375 175.793731 -51.247656 0.297363 -0.784391 23.053295 2.775104 -0.229473 3.347843 0.471456 -0.357377 5.407955 0.755810 -0.970153 19.324125 2.618034 -3.008676 23.141442 -7.076524 -3.584701 7.129111 -11.990866 5.713330 1.890425 -1.338363 32.449540 -36.425200 -24.518284 176.040595 -52.531659 -150.098322 21.528466 -13.599621 -68.026463 -10.399780 -2.054027 -4.815159 -11.795846 -33.738006 1.351671 158.402348 -63.690533 177.966378 -10.008502 -13.610912 37.695232 7.578678 -25.370145 -1.007636 -7.855025 62.461438 -11.491841 1.876114 31.667435 0.618173 -1.344458 -16.796076 9.733588 -10.744166 -23.169711 -0.771025 32.365648 62.398970 30.355159 -11.903954 12.980171 -6.166432 0.109016 0.393171 0.036794
-246.258988 56.741870 149.566961 175.791390 -51.249745 0.299650 -0.800846 23.068214 2.784544 -0.230166 3.355857 0.473103 -0.358400 5.420074 0.758182 -0.968062 19.316711 2.608955 -3.052481 23.105489 -7.164585 -3.640298 7.062650 -12.134395 5.707626 1.891892 -1.337186 32.444359 -36.428370 -24.510021 176.046606 -52.528923 -150.105071 21.523839 -13.591119 -68.022888 -10.411857 -2.047404 -4.808005 -11.817026 -33.706412 1.362800 158.427708 -63.659987 177.961464 -10.005107 -13.619860 37.703701 7.579505 -25.366118 -1.009098 -7.846966 62.458109 -11.481324 1.873130 31.658290 0.620412 -1.341784 -16.781651 9.727067 -10.739494 -23.169552 -0.770531 32.358394 62.400053 30.349365 -11.899594 12.990392 -6.161097 0.103283 0.387214 0.033879
-246.256844 56.742743 149.569132 175.781401 -51.256772 0.306089 -0.801605 23.078098 2.787906 -0.233592 3.359660 0.475898 -0.353084 5.420794 0.754525 -0.966898 19.337916 2.619625 -3.108509 23.058530 -7.255147 -3.703531 6.991096 -12.280429 5.701464 1.888225 -1.333883 32.447977 -36.433037 -24.514849 176.095300 -52.546858 -150.192601 21.546106 -13.616211 -67.966875 -10.458567 -2.020001 -4.779932 -11.797301 -33.730980 1.353359 158.465696 -63.637517 177.947959 -9.986833 -13.612236 37.707654 7.580947 -25.356611 -1.006155 -7.842575 62.453898 -11.475454 1.868891 31.646724 0.619804 -1.335278 -16.764631 9.719988 -10.729864 -23.162208 -0.769813 32.349934 62.400898 30.343100 -11.893072 12.998037 -6.155650 0.099711 0.387115 0.033109
-246.254061 56.744630 149.570819 175.767510 -51.268923 0.312241 -0.793973 23.090826 2.792986 -0.242648 3.363258 0.483007 -0.347654 5.421740 0.748784 -0.972071 19.350076 2.624058 -3.162336 23.014978 -7.342472 -3.774677 6.911896 -12.429496 5.706809 1.883670 -1.335653 32.454426 -36.435787 -24.523210 176.116022 -52.553908 -150.237503 21.549394 -13.622340 -67.943089 -10.460971 -2.017048 -4.774164 -11.803219 -33.731787 1.352906 158.468601 -63.631541 177.956706 -9.973165 -13.605375 37.711301 7.579778 -25.341393 -0.997812 -7.846665 62.446726 -11.478748 1.871585 31.638229 0.617282 -1.328597 -16.750725 9.714551 -10.716319 -23.147655 -0.765736 32.335056 62.402360 30.332465 -11.888169 13.006165 -6.150342 0.100301 0.385852 0.032213
-246.254370 56.746640 149.572489 175.748289 -51.278514 0.341560 -0.802130 23.101950 2.781155 -0.240579 3.364149 0.482521 -0.351041 5.429044 0.749838 -0.974793 19.357697 2.623161 -3.218666 22.964298 -7.434143 -3.855138 6.827309 -12.578953 5.715380 1.879741 -1.341901 32.440394 -36.438122 -24.493947 176.113085 -52.548937 -150.236103 21.543363 -13.602119 -67.944323 -10.452191 -2.028346 -4.781414 -11.805579 -33.732490 1.352518 158.435710 -63.651664 177.991675 -9.967229 -13.614666 37.715238 7.586433 -25.327815 -1.010717 -7.850339 62.440087 -11.485519 1.875640 31.636371 0.610770 -1.325164 -16.742764 9.714336 -10.693710 -23.138693 -0.780390 32.327941 62.396733 30.314966 -11.875732 13.030544 -6.125248 0.085256 0.376169 0.025183
-246.252398 56.748741 149.574506 175.743354 -51.284903 0.346570 -0.810313 23.109152 2.784221 -0.240275 3.363191 0.481103 -0.360464 5.436191 0.760504 -0.972885 19.361653 2.614849 -3.280660 22.912984 -7.527876 -3.944259 6.739110 -12.725598 5.712901 1.888844 -1.337178 32.409414 -36.452391 -24.445496 176.120968 -52.540910 -150.206910 21.546959 -13.608476 -67.917662 -10.456152 -2.013601 -4.777541 -11.809364 -33.736129 1.351372 158.371605 -63.659287 178.047610 -9.995145 -13.628234 37.736393 7.574166 -25.316259 -1.007798 -7.838993 62.432136 -11.482971 1.882037 31.627393 0.616149 -1.326458 -16.727816 9.706783 -10.684784 -23.131903 -0.780371 32.325151 62.395111 30.311235 -11.873646 13.044450 -6.114609 0.079382 0.376140 0.024673
-246.249007 56.751619 149.576213 175.723177 -51.292886 0.355471 -0.804240 23.114322 2.795416 -0.239297 3.365261 0.477467 -0.357948 5.437751 0.759669 -0.973502 19.366107 2.621925 -3.351018 22.862142 -7.619504 -4.040948 6.643193 -12.868245 5.704622 1.906171 -1.329681 32.410073 -36.464866 -24.438269 176.131087 -52.538394 -150.211957 21.546423 -13.607700 -67.900317 -10.473831 -1.972172 -4.752649 -11.811505 -33.740999 1.349062 158.392172 -63.623771 178.045739 -9.995853 -13.628260 37.748865 7.568473 -25.306143 -0.993957 -7.830607 62.424998 -11.484210 1.884725 31.623313 0.627121 -1.325591 -16.713970 9.693402 -10.646030 -23.114014 -0.763883 32.270535 62.395449 30.268785 -11.896411 13.047099 -6.122157 0.105000 0.381712 0.037971
-246.245838 56.754685 149.577980 175.681274 -51.297061 0.382617 -0.787290 23.116346 2.800334 -0.231499 3.367768 0.474955 -0.360118 5.438255 0.761151 -0.976981 19.374522 2.631904 -3.423196 22.803265 -7.715171 -4.143150 6.536602 -13.006120 5.699923 1.919438 -1.325135 32.413456 -36.474544 -24.432133 176.135523 -52.532637 -150.215188 21.531651 -13.592635 -67.877121 -10.474742 -1.965376 -4.752313 -11.815044 -33.735706 1.351303 158.405894 -63.603437 178.042125 -9.993562 -13.625989 37.761972 7.573934 -25.299466 -0.984140 -7.856453 62.407101 -11.507569 1.893487 31.636177 0.607971 -1.319557 -16.711511 9.694785 -10.609703 -23.104962 -0.755373 32.274883 62.392599 30.264582 -11.880297 13.060987 -6.091239 0.086299 0.377014 0.029690
-246.243562 56.758133 149.579532 175.659840 -51.299245 0.398982 -0.784950 23.119702 2.798286 -0.230784 3.369261 0.475285 -0.359298 5.440410 0.761586 -0.970724 19.372264 2.629059 -3.500369 22.747437 -7.795096 -4.248807 6.421697 -13.138934 5.677999 1.950245 -1.283162 32.451153 -36.481289 -24.462407 176.131517 -52.525530 -150.198512 21.517491 -13.582586 -67.849058 -10.484378 -1.944956 -4.730748 -11.807440 -33.744942 1.342332 158.408393 -63.603066 178.045717 -9.998890 -13.640908 37.774741 7.569453 -25.294194 -0.981285 -7.855289 62.396944 -11.511425 1.904517 31.641938 0.603037 -1.321230 -16.710124 9.693415 -10.560513 -23.091694 -0.748145 32.236303 62.386170 30.233137 -11.896106 13.060334 -6.075818 0.095162 0.386708 0.031612
-246.239902 56.763894 149.579426 175.626899 -51.314297 0.416723 -0.780005 23.139232 2.799573 -0.237998 3.370716 0.475361 -0.358216 5.443071 0.762232 -0.953488 19.371364 2.628033 -3.579997 22.683439 -7.875368 -4.356797 6.302238 -13.267812 5.674881 1.951808 -1.277979 32.446694 -36.483140 -24.444112 176.127312 -52.517830 -150.183400 21.495632 -13.571448 -67.806291 -10.493157 -1.924811 -4.706510 -11.785842 -33.772309 1.320847 158.371509 -63.610956 178.080912 -10.015966 -13.653916 37.786219 7.548771 -25.272799 -0.963613 -7.824737 62.382763 -11.501322 1.921688 31.644908 0.607703 -1.328417 -16.705901 9.685330 -10.446173 -23.052525 -0.742645 32.114054 62.378528 30.163093 -11.932487 13.047898 -6.071544 0.120311 0.405356 0.045050
-246.236872 56.769361 149.579576 175.587997 -51.322718 0.443202 -0.761234 23.148774 2.800574 -0.246721 3.370936 0.475251 -0.357716 5.444749 0.762763 -0.963947 19.378669 2.633168 -3.647259 22.614578 -7.964047 -4.467941 6.180219 -13.393177 5.689108 1.950991 -1.283658 32.445175 -36.483794 -24.429596 176.134159 -52.512457 -150.194405 21.478431 -13.567369 -67.747855 -10.483151 -1.914950 -4.700707 -11.780535 -33.775163 1.324743 158.346394 -63.600786 178.117448 -10.030683 -13.675878 37.820527 7.560997 -25.262330 -0.955710 -7.819072 62.376518 -11.500033 1.925290 31.649941 0.610686 -1.334504 -16.702012 9.681451 -10.363098 -23.030088 -0.737216 32.063057 62.375318 30.133691 -11.947751 13.044127 -6.051180 0.123860 0.413035 0.047263
-246.236886 56.775292 149.579172 175.545045 -51.330971 0.492572 -0.761131 23.155611 2.774474 -0.236044 3.373834 0.476002 -0.362457 5.448611 0.762960 -0.960891 19.381440 2.634495 -3.725391 22.549665 -8.041751 -4.582941 6.056276 -13.512637 5.681012 1.955491 -1.271052 32.460288 -36.484489 -24.430224 176.135234 -52.506407 -150.200481 21.440100 -13.555276 -67.660452 -10.491805 -1.901955 -4.685692 -11.818458 -33.749292 1.361629 158.226207 -63.562989 178.271458 -10.096056 -13.735698 37.925016 7.585125 -25.249642 -0.971908 -7.841142 62.365962 -11.518742 1.928142 31.664538 0.600277 -1.326282 -16.708846 9.679036 -10.297352 -23.017481 -0.747084 32.151978 62.358210 30.180565 -11.940804 13.047121 -5.958610 0.072417 0.417422 0.020556
-246.232073 56.781130 149.579166 175.521954 -51.336092 0.499811 -0.761104 23.165807 2.777175 -0.224481 3.371636 0.477449 -0.361427 5.449869 0.762588 -0.959367 19.383021 2.634861 -3.806192 22.491124 -8.115874 -4.700345 5.932325 -13.622974 5.669693 1.961133 -1.257928 32.473101 -36.488280 -24.426999 176.162729 -52.505437 -150.256769 21.390744 -13.540236 -67.506810 -10.506074 -1.886610 -4.667489 -11.821539 -33.755165 1.365939 158.109505 -63.543708 178.397011 -10.140516 -13.791652 38.027476 7.573483 -25.240521 -0.960695 -7.835947 62.354477 -11.512303 1.936854 31.671609 0.595444 -1.328032 -16.709187 9.669472 -10.201695 -22.998128 -0.716000 32.133082 62.351528 30.168017 -11.996502 13.042503 -5.922118 0.083001 0.425182 0.028321
